<?xml version="1.0" encoding="utf-8"?>
<!-- Generator: Adobe Illustrator 16.0.0, SVG Export Plug-In . SVG Version: 6.00 Build 0)  -->
<!DOCTYPE svg PUBLIC "-//W3C//DTD SVG 1.1//EN" "http://www.w3.org/Graphics/SVG/1.1/DTD/svg11.dtd">
<svg version="1.1" id="Layer_1" xmlns="http://www.w3.org/2000/svg" xmlns:xlink="http://www.w3.org/1999/xlink" x="0px" y="0px"
	 width="36.029px" height="36.029px" viewBox="-3.016 -7.526 36.029 36.029" enable-background="new -3.016 -7.526 36.029 36.029"
	 xml:space="preserve">
<circle fill="#E6EB75" cx="14.999" cy="10.487" r="18.015"/>
<g>
	
		<linearGradient id="SVGID_1_" gradientUnits="userSpaceOnUse" x1="305.0469" y1="89.4443" x2="314.0884" y2="96.0971" gradientTransform="matrix(-0.7075 -0.7068 0.7068 -0.7075 171.9929 295.6017)">
		<stop  offset="0" style="stop-color:#254C24"/>
		<stop  offset="0.3349" style="stop-color:#6AB745"/>
		<stop  offset="1" style="stop-color:#A3CD39"/>
	</linearGradient>
	<path fill="url(#SVGID_1_)" d="M14.225,20.817c-0.514,0.512-1.309,0.551-1.775,0.082L8.92,17.376
		c-0.467-0.467-0.43-1.262,0.082-1.775L22.893,1.696c0.512-0.512,1.307-0.551,1.775-0.084l3.527,3.525
		c0.467,0.467,0.432,1.262-0.082,1.775L14.225,20.817z"/>
	
		<linearGradient id="SVGID_2_" gradientUnits="userSpaceOnUse" x1="305.9541" y1="81.8984" x2="318.1066" y2="87.0502" gradientTransform="matrix(-0.7075 -0.7068 0.7068 -0.7075 171.9929 295.6017)">
		<stop  offset="0.0264" style="stop-color:#254C24"/>
		<stop  offset="0.6432" style="stop-color:#6AB745"/>
		<stop  offset="1" style="stop-color:#A3CD39"/>
	</linearGradient>
	<path fill="url(#SVGID_2_)" d="M1.73,10.216c-0.4-0.398-0.32-1.129,0.18-1.629l3.777-3.781c0.5-0.5,1.23-0.582,1.629-0.182
		l10.836,10.824c0.4,0.398,0.318,1.129-0.182,1.631l-3.775,3.779c-0.5,0.5-1.23,0.582-1.631,0.182L1.73,10.216z"/>
	
		<linearGradient id="SVGID_3_" gradientUnits="userSpaceOnUse" x1="308.6641" y1="91.3652" x2="319.6206" y2="94.1471" gradientTransform="matrix(-0.7075 -0.7068 0.7068 -0.7075 171.9929 295.6017)">
		<stop  offset="0" style="stop-color:#6BBD4B"/>
		<stop  offset="0.5591" style="stop-color:#9BCA40"/>
		<stop  offset="0.805" style="stop-color:#B3D460"/>
	</linearGradient>
	<path fill="url(#SVGID_3_)" d="M2.176,8.638c0.037,0.24,0.574,0.754,0.82,1l0.316,0.316l8.75,8.742
		c0.066,0.064,0.137,0.121,0.211,0.168c0.26,0.244,0.646,0.291,1.014,0.156c0.205-0.055,0.4-0.164,0.561-0.324l2.732-2.734
		c0.074-0.074,0.137-0.156,0.188-0.24l9.785-9.795c0.471-0.471,0.541-1.166,0.154-1.551l-2.904-2.902
		c-0.385-0.385-1.08-0.314-1.551,0.156l-9.105,9.117L7.512,5.118C7.008,4.47,6.234,4.558,5.74,5.05L2.975,7.8
		C2.729,8.048,2.455,8.339,2.176,8.638z"/>
	
		<linearGradient id="SVGID_4_" gradientUnits="userSpaceOnUse" x1="312.0928" y1="103.0068" x2="312.3265" y2="87.3147" gradientTransform="matrix(-0.7075 -0.7068 0.7068 -0.7075 171.9929 295.6017)">
		<stop  offset="0" style="stop-color:#98C93C"/>
		<stop  offset="0.497" style="stop-color:#5CB947"/>
		<stop  offset="0.9758" style="stop-color:#009949"/>
	</linearGradient>
	<path fill="url(#SVGID_4_)" d="M16.494,12.821c-4.344,1.289-7.854,0.805-10.328-0.045l2.428,2.426
		c0.049,0.094,0.111,0.182,0.189,0.258l3.334,3.332c0.408,0.408,1.076,0.414,1.549,0.035c0.033-0.021,0.066-0.043,0.098-0.068
		l3.35-3.354c0.045-0.043,0.084-0.09,0.121-0.137l9.383-9.391c0.473-0.475,0.498-1.217,0.057-1.658L26,3.632
		C23.699,10.718,16.494,12.821,16.494,12.821z"/>
	
		<linearGradient id="SVGID_5_" gradientUnits="userSpaceOnUse" x1="324.1973" y1="86.1768" x2="314.5763" y2="88.0801" gradientTransform="matrix(-0.7075 -0.7068 0.7068 -0.7075 171.9929 295.6017)">
		<stop  offset="0.0121" style="stop-color:#254C24"/>
		<stop  offset="0.103" style="stop-color:#1C803F"/>
		<stop  offset="0.1879" style="stop-color:#53AB47"/>
		<stop  offset="0.497" style="stop-color:#3C9C48"/>
		<stop  offset="0.7333" style="stop-color:#54B848"/>
		<stop  offset="0.8606" style="stop-color:#5FBA46"/>
	</linearGradient>
	<path fill="url(#SVGID_5_)" d="M1.836,8.642c0.08-0.092,0.176-0.193,0.287-0.305l3.574-3.578c0.475-0.475,1.156-0.562,1.523-0.195
		l6.02,6.039c-0.148-0.596-0.168-1.023-0.277-1.266l-5.504-5.5C7.074,3.489,6.395,3.577,5.92,4.052L2.346,7.63
		C2.012,8.171,1.865,8.458,1.836,8.642z"/>
	
		<linearGradient id="SVGID_6_" gradientUnits="userSpaceOnUse" x1="313.3564" y1="103.252" x2="313.2117" y2="89.0457" gradientTransform="matrix(-0.7075 -0.7068 0.7068 -0.7075 171.9929 295.6017)">
		<stop  offset="0" style="stop-color:#53AB47"/>
		<stop  offset="0.2" style="stop-color:#1D8140"/>
		<stop  offset="0.497" style="stop-color:#3C9C48"/>
		<stop  offset="0.8606" style="stop-color:#7EC24F"/>
	</linearGradient>
	<path fill="url(#SVGID_6_)" d="M21.119,2.827c1.654-1.693,1.684-1.592,1.684-1.592c0.742-0.391,1.523,0.205,1.523,0.205l0.49,0.316
		l-0.48-0.486c-0.645-0.57-1.848-1.104-2.654-0.645l-8.719,8.711l0.277,1.266C13.24,10.603,19.465,4.521,21.119,2.827z"/>
	<path fill="#A9D053" d="M1.852,10.356l0.725,0.707c-0.383-0.383-1.209-1.562-0.494-2.352l3.639-3.641
		c0.48-0.482,1.137-0.547,1.52-0.164l5.609,5.652c0.254,0.279,0.396,0.322,0.549,0.268l9.34-9.348
		c0.732-0.596,1.791-0.008,2.227,0.428l2.729,2.691c-0.002-0.002-0.004-0.004-0.006-0.006l-2.834-2.797
		c-0.447-0.447-1.529-1.061-2.264-0.465l-9.307,9.316c-0.014-0.016-0.027-0.029-0.043-0.045L7.26,4.604
		C6.871,4.214,6.154,4.3,5.662,4.794l-3.727,3.73C1.357,8.991,1.463,9.968,1.852,10.356z"/>
	<g>
		<g>
			<g>
				
					<linearGradient id="SVGID_7_" gradientUnits="userSpaceOnUse" x1="314.6914" y1="92.6621" x2="301.4389" y2="92.6621" gradientTransform="matrix(-0.7075 -0.7068 0.7068 -0.7075 171.9929 295.6017)">
					<stop  offset="0" style="stop-color:#6DBD45"/>
					<stop  offset="0.2788" style="stop-color:#6DBD45"/>
					<stop  offset="0.5091" style="stop-color:#1C803F"/>
					<stop  offset="0.6424" style="stop-color:#54B848"/>
					<stop  offset="0.7939" style="stop-color:#91C73E"/>
				</linearGradient>
				<path fill="url(#SVGID_7_)" d="M23.92,1.622l2.791,2.789c0.369,0.369,0.266,1.072-0.232,1.57l-13.477,13.49
					c-0.473,0.475-1.133,0.592-1.514,0.283l0.902,0.9c0.471,0.471,1.262,0.443,1.766-0.062l13.66-13.674
					c0.504-0.504,0.531-1.295,0.061-1.766l-3.553-3.549c-0.473-0.471-1.262-0.443-1.766,0.062L22.51,1.714
					C22.988,1.343,23.59,1.292,23.92,1.622z"/>
			</g>
		</g>
	</g>
	
		<linearGradient id="SVGID_8_" gradientUnits="userSpaceOnUse" x1="310.417" y1="78.9707" x2="315.652" y2="84.8549" gradientTransform="matrix(-0.7075 -0.7068 0.7068 -0.7075 171.9929 295.6017)">
		<stop  offset="0.0745" style="stop-color:#1C803F"/>
		<stop  offset="0.5212" style="stop-color:#54B848"/>
		<stop  offset="0.6909" style="stop-color:#5FBA46"/>
		<stop  offset="0.8772" style="stop-color:#A0CC3A"/>
	</linearGradient>
	<path fill="url(#SVGID_8_)" d="M3.451,11.565l8.014,8.148c0.355,0.354,1.023,0.26,1.494-0.211l0.555-0.557
		c-0.414,0.285-1.072,0.129-1.396-0.143l-6.07-6.082C4.537,12.097,3.789,11.739,3.451,11.565z"/>
	
		<linearGradient id="SVGID_9_" gradientUnits="userSpaceOnUse" x1="320.1836" y1="81.249" x2="320.1148" y2="83.275" gradientTransform="matrix(-0.7075 -0.7068 0.7068 -0.7075 171.9929 295.6017)">
		<stop  offset="0.2434" style="stop-color:#74BF44"/>
		<stop  offset="0.7522" style="stop-color:#A0CC3A"/>
	</linearGradient>
	<path fill="url(#SVGID_9_)" d="M2.113,8.655c-0.469,0.471-0.428,1.109-0.072,1.463l1.479,1.504
		c0.725,0.404,1.734,0.912,2.549,1.109L2.682,9.339c-0.469-0.488-0.549-0.65-0.42-0.834L2.113,8.655z"/>
</g>
</svg>
