<?xml version="1.0" encoding="utf-8"?>
<!-- Generator: Adobe Illustrator 16.0.0, SVG Export Plug-In . SVG Version: 6.00 Build 0)  -->
<!DOCTYPE svg PUBLIC "-//W3C//DTD SVG 1.1//EN" "http://www.w3.org/Graphics/SVG/1.1/DTD/svg11.dtd">
<svg version="1.1" id="Layer_1" xmlns="http://www.w3.org/2000/svg" xmlns:xlink="http://www.w3.org/1999/xlink" x="0px" y="0px"
	 width="36.029px" height="36.029px" viewBox="-4.91 -4.988 36.029 36.029" enable-background="new -4.91 -4.988 36.029 36.029"
	 xml:space="preserve">
<g>
	<circle fill="#ED1C24" cx="13.104" cy="13.025" r="18.015"/>
	<path fill="#FFFFFF" d="M16.186,20.98c-1.659-1.461-3.346-2.973-3.346-2.973s-1.071,1.584-2.121,3.104
		c-0.892,1.289-1.613,2.57-2.518,2.492c0,0-0.751,0.051-1.363-0.586c-0.355-0.371-1.431-1.51-2.354-2.518
		c-0.638-0.699-1.103-0.984-0.982-1.785c0.129-0.852,4.545-5.65,4.545-5.65s-1.614-1.773-3.018-3.413
		c-1.176-1.372-2.294-2.555-1.354-3.44c1.024-0.97,1.648-1.753,2.173-2.312c0.53-0.566,0.959-0.901,2.001-0.811
		C8.2,3.119,8.404,3.348,8.677,3.667c0.49,0.578,1.025,1.327,1.655,2.086c1.104,1.333,2.268,2.691,2.268,2.691
		s1.989-1.922,3.983-3.648c1.599-1.383,3.159-2.852,4.036-2.182c0.698,0.534,0.953,1.542,1.268,2.424
		c0.514,1.443,0.734,2.589,0.077,3.173c-1.009,0.896-4.984,4.88-4.984,4.88c1.768,1.562,1.879,1.414,3.708,2.896
		c1.137,0.922,2.501,1.439,2.139,2.477c-0.39,1.113-0.86,2.525-1.405,3.604c-0.493,0.975-1.016,1.604-1.914,1.492
		C19.048,23.503,17.635,22.257,16.186,20.98z"/>
</g>
</svg>
